<svg xmlns="http://www.w3.org/2000/svg" viewBox="0 0 40 40"><defs><style>.cls-1{fill:#231f20;}.cls-2{fill:#d688e2;}.cls-3{fill:#72a2cc;}.cls-4{fill:#74b957;}</style></defs><g id="Icons"><polygon class="cls-1" points="3.69 10.58 20 1.16 36.31 10.58 36.31 29.42 20 38.84 3.69 29.42 3.69 10.58"/><polygon class="cls-2" points="3.69 10.58 20 20 20 26.28 11.84 27.85 20 32.56 20 38.84 3.69 29.42 3.69 23.14 11.84 21.57 3.69 16.86 3.69 10.58"/><path class="cls-1" d="M20,39.62a.76.76,0,0,1-.39-.1L3.29,30.1a.79.79,0,0,1-.39-.68V23.14a.78.78,0,0,1,.64-.77L9.63,21.2,3.29,17.54a.79.79,0,0,1-.39-.68V10.58A.79.79,0,0,1,4.08,9.9l16.31,9.42a.79.79,0,0,1,.39.68v6.28a.77.77,0,0,1-.63.77l-6.09,1.17,6.33,3.66a.79.79,0,0,1,.39.68v6.28a.79.79,0,0,1-.39.68A.76.76,0,0,1,20,39.62ZM4.47,29l14.75,8.51V33l-7.77-4.48a.79.79,0,0,1-.38-.81.78.78,0,0,1,.62-.64l7.53-1.45V20.45L4.47,11.94v4.47l7.77,4.48A.78.78,0,0,1,12,22.34L4.47,23.79Z"/><polygon class="cls-3" points="20 20 25.44 16.86 25.44 23.14 30.88 20 30.88 13.72 36.31 10.58 36.31 29.42 30.88 32.56 30.88 26.28 25.44 29.42 25.44 35.7 20 38.84 20 20"/><path class="cls-1" d="M20,39.62a.76.76,0,0,1-.39-.1.79.79,0,0,1-.39-.68V20a.79.79,0,0,1,.39-.68l5.44-3.14a.78.78,0,0,1,.78,0,.79.79,0,0,1,.39.68v4.92l3.87-2.23V13.72a.79.79,0,0,1,.39-.68L35.92,9.9a.79.79,0,0,1,1.18.68V29.42a.79.79,0,0,1-.39.68l-5.44,3.14a.79.79,0,0,1-1.18-.68V27.64l-3.87,2.23V35.7a.79.79,0,0,1-.39.68l-5.44,3.14A.76.76,0,0,1,20,39.62Zm.78-19.17v17l3.87-2.23V29.42a.78.78,0,0,1,.4-.68l5.43-3.14a.79.79,0,0,1,1.18.68V31.2L35.53,29v-17l-3.87,2.23V20a.79.79,0,0,1-.39.68l-5.44,3.14a.79.79,0,0,1-1.18-.68V18.22Z"/><polygon class="cls-4" points="3.69 10.58 20 1.16 25.44 4.3 14.56 10.58 20 13.72 30.88 7.44 36.31 10.58 20 20 3.69 10.58"/><path class="cls-1" d="M20,20.78a.76.76,0,0,1-.39-.1L3.29,11.26a.79.79,0,0,1,0-1.36L19.61.48a.78.78,0,0,1,.78,0l5.44,3.14a.79.79,0,0,1,0,1.36l-9.7,5.6L20,12.81,30.48,6.76a.8.8,0,0,1,.79,0L36.71,9.9a.79.79,0,0,1,0,1.36L20.39,20.68A.76.76,0,0,1,20,20.78ZM5.25,10.58,20,19.09l14.75-8.51L30.88,8.35,20.39,14.4a.78.78,0,0,1-.78,0l-5.44-3.14a.79.79,0,0,1,0-1.36l9.7-5.6L20,2.07Z"/></g></svg>