<?xml version="1.0" encoding="UTF-8"?>
<svg id="Layer_2" data-name="Layer 2" xmlns="http://www.w3.org/2000/svg" viewBox="0 0 217.98 250.16">
  <defs>
    <style>
      .cls-1 {
        fill: #221f20;
      }

      .cls-2 {
        fill: #72a2cc;
      }

      .cls-3 {
        fill: #d688e2;
      }

      .cls-4 {
        fill: #74b957;
      }
    </style>
  </defs>
  <g id="Z">
    <g>
      <path class="cls-3" d="m52.06,174.28c.35-2.06,1.94-3.69,3.99-4.08l47.94-9.23v-33.01S23.09,81.26,23.09,81.26l-13.09-7.56v28.48l49.5,28.58c1.81,1.04,2.78,3.1,2.43,5.16-.35,2.06-1.94,3.69-3.99,4.08l-47.94,9.23v33.01l93.99,54.27v-28.48l-49.5-28.58c-1.81-1.04-2.78-3.1-2.43-5.16Z"/>
      <path class="cls-2" d="m183.32,87.94v37.14c0,1.79-.95,3.44-2.5,4.33l-34.66,20.01c-1.55.89-3.45.89-5,0-1.55-.89-2.5-2.54-2.5-4.33v-31.37s-18.5,10.68-18.5,10.68l-6.17,3.56v108.53l24.66-14.24v-37.14c0-1.79.95-3.44,2.5-4.33l34.66-20.01c1.55-.89,3.45-.89,5,0,1.55.89,2.5,2.54,2.5,4.33v31.37l24.66-14.24v-108.53l-1.33.77-23.33,13.47Z"/>
      <path class="cls-4" d="m202.98,65.04l-31.75-18.33-24.79,14.18c1.37.92,2.21,2.48,2.21,4.15,0,1.79-.95,3.44-2.5,4.33l-34.66,20.01c-1.55.89-3.45.89-5,0l-34.66-20.01c-1.55-.89-2.5-2.54-2.5-4.33s.95-3.44,2.5-4.33l34.66-20.01c1.55-.89,3.45-.89,5,0l2.93,1.69,24.48-14.35-29.91-17.27L15,65.04l93.99,54.27,32.16-18.57,61.83-35.7Z"/>
      <path class="cls-1" d="m215.48,60.71l-41.73-24.1c-1.54-.89-3.44-.89-4.98-.01l-2.53,1.45-13.06-7.54c.43-.75.67-1.62.67-2.51,0-1.78-.96-3.42-2.5-4.31L111.49.67c-1.55-.89-3.45-.89-5,0L2.5,60.71c-1.55.89-2.5,2.54-2.5,4.33v40.03c0,1.79.95,3.44,2.5,4.33l2.5,1.44v29.16l-.94.18c-2.35.45-4.06,2.51-4.06,4.91v40.03c0,1.79.95,3.44,2.5,4.33l103.99,60.04c.77.45,1.64.67,2.5.67s1.73-.22,2.5-.67l34.66-20.01c1.55-.89,2.5-2.54,2.5-4.33v-2.89s25.33-14.63,25.33-14.63c.43.75,1.06,1.38,1.83,1.83,1.55.89,3.45.89,5,0l34.66-20.01c1.55-.89,2.5-2.54,2.5-4.33v-120.08c0-1.79-.95-3.44-2.5-4.33ZM108.99,10.77l29.91,17.27-24.48,14.35-2.93-1.69c-1.55-.89-3.45-.89-5,0l-34.66,20.01c-1.55.89-2.5,2.54-2.5,4.33s.95,3.44,2.5,4.33l34.66,20.01c1.55.89,3.45.89,5,0l34.66-20.01c1.55-.89,2.5-2.54,2.5-4.33,0-1.67-.83-3.22-2.21-4.15l24.79-14.18,31.75,18.33-61.83,35.7-32.16,18.57L15,65.04,108.99,10.77Zm-49.5,119.98l-49.5-28.58v-28.48l13.09,7.56,80.9,46.71v33.01s-47.94,9.23-47.94,9.23c-2.05.39-3.64,2.02-3.99,4.08-.35,2.06.62,4.12,2.43,5.16l49.5,28.58v28.48L10,182.23v-33.01l47.94-9.23c2.05-.39,3.64-2.02,3.99-4.08.35-2.06-.62-4.12-2.43-5.16Zm54.5,74.38v-77.17l6.17-3.56,18.5-10.68v31.37c0,1.79.95,3.44,2.5,4.33,1.55.89,3.45.89,5,0l34.66-20.01c1.55-.89,2.5-2.54,2.5-4.33v-37.14l23.33-13.47,1.33-.77v108.53l-24.66,14.24v-31.37c0-1.79-.95-3.44-2.5-4.33-1.55-.89-3.45-.89-5,0l-34.66,20.01c-1.55.89-2.5,2.54-2.5,4.33v37.14s-24.66,14.24-24.66,14.24v-31.37Z"/>
    </g>
  </g>
</svg>