<?xml version="1.0" encoding="UTF-8"?>
<svg id="Layer_2" data-name="Layer 2" xmlns="http://www.w3.org/2000/svg" viewBox="0 0 217.98 250.16">
  <defs>
    <style>
      .cls-1 {
        fill: #fff;
      }
    </style>
  </defs>
  <g id="Z">
    <path class="cls-1" d="m215.48,60.71l-34.66-20.01c-1.55-.89-3.45-.89-5,0l-2.5,1.44-25.33-14.63c.43-.75.67-1.61.67-2.5,0-1.79-.95-3.44-2.5-4.33L111.49.67c-1.55-.89-3.45-.89-5,0L2.5,60.71c-1.55.89-2.5,2.54-2.5,4.33v40.03c0,1.79.95,3.44,2.5,4.33l2.5,1.44v29.16l-.95.18c-2.35.45-4.05,2.51-4.05,4.91v40.03c0,1.79.95,3.44,2.5,4.33l103.99,60.04c.77.45,1.64.67,2.5.67s1.73-.22,2.5-.67l34.66-20.01c1.55-.89,2.5-2.54,2.5-4.33v-2.89l25.33-14.63c.43.75,1.06,1.38,1.83,1.83,1.55.89,3.45.89,5,0l34.66-20.01c1.55-.89,2.5-2.54,2.5-4.33v-120.08c0-1.79-.95-3.44-2.5-4.33Zm-143.65,0c-1.55.89-2.5,2.54-2.5,4.33s.95,3.44,2.5,4.33l34.66,20.01c1.55.89,3.45.89,5,0l66.83-38.58,24.66,14.24-93.99,54.27L15,65.04,108.99,10.77l24.66,14.24-61.83,35.7Zm-61.83,12.99l2.41,1.39,91.58,52.88v33.01s-47.94,9.23-47.94,9.23c-2.05.39-3.64,2.02-3.99,4.08-.35,2.06.62,4.12,2.43,5.16l49.5,28.58v28.48S10,182.23,10,182.23v-33.01l47.94-9.23c2.05-.39,3.64-2.02,3.99-4.08.35-2.06-.62-4.12-2.43-5.16l-49.5-28.58v-28.48Zm103.99,54.27l24.66-14.24v31.37c0,1.79.95,3.44,2.5,4.33,1.55.89,3.45.89,5,0l34.66-20.01c1.55-.89,2.5-2.54,2.5-4.33v-37.14l20.84-12.03,3.82-2.21v108.53l-24.66,14.24v-31.37c0-1.79-.95-3.44-2.5-4.33-1.55-.89-3.45-.89-5,0l-34.66,20.01c-1.55.89-2.5,2.54-2.5,4.33v37.14l-24.66,14.24v-108.53Z"/>
  </g>
</svg>